<svg width="900" height="320" viewBox="0 0 900 320" fill="none" xmlns="http://www.w3.org/2000/svg">
  <defs>
    <radialGradient id="flowBg" cx="0.5" cy="0.18" r="0.88">
      <stop offset="0" stop-color="#111111"/>
      <stop offset="0.62" stop-color="#050608"/>
      <stop offset="1" stop-color="#000000"/>
    </radialGradient>
    <linearGradient id="flowLine" x1="84" y1="128" x2="816" y2="128" gradientUnits="userSpaceOnUse">
      <stop offset="0" stop-color="#e4f6f0" stop-opacity="0"/>
      <stop offset="0.28" stop-color="#9dcfca" stop-opacity="0.62"/>
      <stop offset="0.5" stop-color="#e4f6f0" stop-opacity="0.92"/>
      <stop offset="0.72" stop-color="#6b95ac" stop-opacity="0.58"/>
      <stop offset="1" stop-color="#45657d" stop-opacity="0"/>
      <animateTransform attributeName="gradientTransform" type="translate" values="-620 0; 620 0; -620 0" dur="10s" repeatCount="indefinite"/>
    </linearGradient>
    <linearGradient id="flowText" x1="0" y1="0" x2="900" y2="0" gradientUnits="userSpaceOnUse">
      <stop offset="0" stop-color="#e4f6f0"/>
      <stop offset="0.31" stop-color="#9dcfca"/>
      <stop offset="0.68" stop-color="#6b95ac"/>
      <stop offset="1" stop-color="#45657d"/>
    </linearGradient>
    <filter id="softGlow" x="-30%" y="-180%" width="160%" height="460%">
      <feGaussianBlur stdDeviation="2.6"/>
    </filter>
  </defs>

  <rect width="900" height="320" rx="20" fill="url(#flowBg)"/>
  <rect x="0.5" y="0.5" width="899" height="319" rx="19.5" stroke="#1a1d22"/>

  <g font-family="'Pretendard','Apple SD Gothic Neo','Noto Sans KR','Malgun Gothic',sans-serif">
    <text x="450" y="46" text-anchor="middle" font-size="12.5" letter-spacing="1" fill="#86868b">요청부터 응답까지, 하나의 흐름으로</text>

    <path
      d="M78 122 C100 121 118 119.4 137 119.4 C204 119.4 282 124.8 346 124.8 C430 124.8 486 113.6 555 113.6 C624 113.6 700 118.8 764 118.8 C786 118.8 804 120 822 122"
      stroke="url(#flowLine)" stroke-width="5.2" stroke-linecap="round" opacity="0.38" filter="url(#softGlow)"/>
    <path
      d="M78 122 C100 121 118 119.4 137 119.4 C204 119.4 282 124.8 346 124.8 C430 124.8 486 113.6 555 113.6 C624 113.6 700 118.8 764 118.8 C786 118.8 804 120 822 122"
      stroke="url(#flowLine)" stroke-width="2.1" stroke-linecap="round"/>

    <g text-anchor="middle">
      <circle cx="137" cy="119.4" r="2.3" fill="#e4f6f0" opacity="0.82"/>
      <circle cx="346" cy="124.8" r="2.3" fill="#9dcfca" opacity="0.82"/>
      <circle cx="555" cy="113.6" r="2.3" fill="#6b95ac" opacity="0.82"/>
      <circle cx="764" cy="118.8" r="2.3" fill="#45657d" opacity="0.82"/>

      <g>
        <text x="137" y="90" font-size="10.5" letter-spacing="2.4" fill="url(#flowText)">CLIENT</text>
        <text x="137" y="166" font-size="14.5" fill="#f5f5f7">React</text>
        <text x="137" y="191" font-size="14.5" fill="#f5f5f7">Flutter</text>
        <text x="137" y="216" font-size="12.2" fill="#48484a">TailwindCSS · Vite</text>
      </g>

      <g>
        <text x="346" y="90" font-size="10.5" letter-spacing="2.4" fill="url(#flowText)">SERVER</text>
        <text x="346" y="166" font-size="14.5" fill="#f5f5f7">NestJS · FastAPI</text>
        <text x="346" y="191" font-size="14.5" fill="#f5f5f7">Express</text>
        <text x="346" y="216" font-size="12.2" fill="#48484a">WebSocket · Pydantic</text>
      </g>

      <g>
        <text x="555" y="90" font-size="10.5" letter-spacing="2.4" fill="url(#flowText)">DATA</text>
        <text x="555" y="166" font-size="14.5" fill="#f5f5f7">MySQL</text>
        <text x="555" y="191" font-size="14.5" fill="#f5f5f7">MariaDB</text>
        <text x="555" y="216" font-size="12.2" fill="#48484a">Oracle · Supabase</text>
      </g>

      <g>
        <text x="764" y="90" font-size="10.5" letter-spacing="2.4" fill="url(#flowText)">INFRA · OPS</text>
        <text x="764" y="166" font-size="14.5" fill="#f5f5f7">Ubuntu · Nginx · PM2</text>
        <text x="764" y="191" font-size="14.5" fill="#f5f5f7">Docker · GitHub Actions</text>
        <text x="764" y="216" font-size="12.2" fill="#48484a">Certbot · Falco · Netdata</text>
      </g>
    </g>

    <path d="M82 244 H818" stroke="#1f232a"/>

    <g text-anchor="middle" font-size="12.8">
      <text x="286" y="282">
        <tspan fill="#9dcfca" letter-spacing="1.8" font-size="10.8">AI</tspan>
        <tspan fill="#a1a1a6" dx="11">Claude · Codex · Gemini</tspan>
      </text>
      <text x="614" y="282">
        <tspan fill="#6b95ac" letter-spacing="1.8" font-size="10.8">LANGUAGES</tspan>
        <tspan fill="#a1a1a6" dx="11">Python · JavaScript / TypeScript</tspan>
      </text>
    </g>
  </g>
</svg>
